<?xml version="1.0" encoding="UTF-8"?>
<svg viewBox="0 0 140 190" xmlns="http://www.w3.org/2000/svg">
 <defs>
  <linearGradient id="a" x1="2" x2="109" y1="62.1" y2="127.7" gradientUnits="userSpaceOnUse">
   <stop stop-color="#ebf0d0" offset="0"/>
   <stop stop-color="#ffffeb" offset="1"/>
  </linearGradient>
 </defs>
 <path d="m21 5h103c8.864 0 16 7.136 16 16v153c0 8.864-7.136 16-16 16h-103c-8.864 0-16-7.136-16-16v-153c0-8.864 7.136-16 16-16z" fill-opacity=".49804"/>
 <path d="m17 1h103c8.864 0 16 7.136 16 16v153c0 8.864-7.136 16-16 16h-103c-8.864 0-16-7.136-16-16v-153c0-8.864 7.136-16 16-16z" fill="#fff"/>
 <path d="m19 3h103c8.864 0 16 7.136 16 16v153c0 8.864-7.136 16-16 16h-103c-8.864 0-16-7.136-16-16v-153c0-8.864 7.136-16 16-16z" fill="#c7891f"/>
 <path d="m18 2h103c8.864 0 16 7.136 16 16v153c0 8.864-7.136 16-16 16h-103c-8.864 0-16-7.136-16-16v-153c0-8.864 7.136-16 16-16z" fill="url(#a)"/>
 <path d="m103.53125,21c-.49728.00194-.9726.09931-1.4375.28125-.9298.36388-1.73845,1.1114-2.03125,2.1875-.17557.64526-.12276,1.38092.1875,2s.93159,1.11934 1.75,1.125c.47552.00329.84996-.1962 1.15625-.53125 .15315-.16753.31341-.41588.3125-.71875s-.20998-.58273-.46875-.75l-.53125.8125c.07009.04531.00017-.00496 0-.0625s.01723-.02179-.03125.03125c-.09695.10606-.45498.21863-.4375.21875-.42286-.00293-.65496-.21705-.84375-.59375s-.22731-.90525-.125-1.28125c.20426-.7507.71786-1.23059 1.40625-1.5s1.55215-.2977 2.25-.03125c2.11599.8079 2.82469,3.42928 1.9375,5.4375-.77925,1.76385-2.58067,2.82959-4.5,2.90625l-62.78125.375v1l62.5625-.375v.0625c.07809.00035.14087-.05998.21875-.0625h.34375v-.09375c2.16345-.19422 4.19059-1.36191 5.09375-3.40625 1.10087-2.49188.1434-5.74812-2.5625-6.78125-.4725-.1804-.97148-.25194-1.46875-.25zm11.40625,3.03125c-.67184.02277-1.34578.16228-1.96875.4375-2.04434.90316-3.21203,2.9303-3.40625,5.09375h-.09375v.34375c-.00252.07788-.06285.14066-.0625.21875h.0625l.25,69.09375h1l-.25-69.3125c.07667-1.91933 1.1424-3.72075 2.90625-4.5 2.00822-.88719 4.6296-.17849 5.4375,1.9375 .26645.69785.23816,1.56161-.03125,2.25s-.7493,1.20199-1.5,1.40625c-.376.10231-.90455.06379-1.28125-.125s-.59082-.42089-.59375-.84375c.00012.01748.11269-.34055.21875-.4375 .05304-.04848.08879-.03107.03125-.03125s-.10781-.07009-.0625,0l.8125-.53125c-.16727-.25877-.44713-.46784-.75-.46875s-.55122.15935-.71875.3125c-.33505.30629-.53454.68073-.53125,1.15625 .00566.81841.50592,1.43974 1.125,1.75s1.35474.36307 2,.1875c1.0761-.2928 1.82362-1.10145 2.1875-2.03125 .18194-.4649.27931-.94022.28125-1.4375s-.0696-.99625-.25-1.46875c-.77485-2.02942-2.79699-3.0683-4.8125-3zm-85.65625,65.96875 .25,69.3125c-.07667,1.91933-1.1424,3.72074-2.90625,4.5-2.00822.88719-4.6296.17848-5.4375-1.9375-.26645-.69785-.23816-1.56162.03125-2.25s.7493-1.202 1.5-1.40625c.376-.10231.90455-.0638 1.28125.125s.59082.42088.59375.84375c-.00012-.01748-.11269.34054-.21875.4375-.05304.04848-.08879.03106-.03125.03125s.10781.07008.0625,0l-.8125.53125c.16727.25877.44713.46783.75.46875s.55122-.15936.71875-.3125c.33505-.30629.53454-.68074.53125-1.15625-.00566-.81841-.50592-1.43975-1.125-1.75s-1.35474-.36308-2-.1875c-1.0761.2928-1.82362,1.10144-2.1875,2.03125-.18194.4649-.27931.94021-.28125,1.4375s.0696.99624.25,1.46875c1.03313,2.7059 4.28937,3.66336 6.78125,2.5625 2.04434-.90316 3.21203-2.93031 3.40625-5.09375h.09375v-.34375c.00252-.07788.06285-.14067.0625-.21875h-.0625l-.25-69.09375h-1zm71.375,67.3125-62.5625.375v-.0625c-.07809-.00035-.14087.05998-.21875.0625h-.34375v.09375c-2.16345.19422-4.19059,1.36191-5.09375,3.40625-1.10087,2.49189-.1434,5.74812 2.5625,6.78125 .4725.1804.97148.25194 1.46875.25s.9726-.09931 1.4375-.28125c.9298-.36388 1.73845-1.1114 2.03125-2.1875 .17556-.64526.12276-1.38092-.1875-2s-.93159-1.11934-1.75-1.125c-.47552-.00329-.84996.1962-1.15625.53125-.15315.16753-.31341.41588-.3125.71875s.20998.58273.46875.75l.53125-.8125c-.07009-.04531-.00017.00496 0,.0625s-.01723.02179.03125-.03125c.09695-.10606.45498-.21863.4375-.21875 .42286.00293.65496.21705.84375.59375s.22731.90525.125,1.28125c-.20426.7507-.71786,1.2306-1.40625,1.5s-1.55215.2977-2.25.03125c-2.11599-.8079-2.82469-3.42928-1.9375-5.4375 .77925-1.76385 2.58067-2.82958 4.5-2.90625l62.78125-.375v-1z" fill="#9f0000" fill-rule="evenodd"/>
 <path transform="matrix(.90928 0 0 1.0998 351.5 184.5)" d="m-363.91-141.56c-1.3155 1e-5 -2.3265 0.35934-3.0329 1.078s-1.0597 1.7479-1.0597 3.0878 0.35323 2.3691 1.0597 3.0878c0.70646 0.70647 1.7174 1.0597 3.0329 1.0597 1.3033 1e-5 2.3021-0.35323 2.9964-1.0597 0.69427-0.71864 1.0414-1.7479 1.0414-3.0878-2e-5 -1.352-0.34717-2.3813-1.0414-3.0878-0.6943-0.71863-1.6931-1.078-2.9964-1.078m-5.1341-2.3204c-1.6566-0.49938-2.905-1.2668-3.7455-2.3021s-1.2607-2.3264-1.2607-3.8734c0-2.3021 0.85872-4.0561 2.5762-5.262s4.2388-1.8088 7.5641-1.8088c3.3009 3e-5 5.8101 0.60297 7.5275 1.8088 1.7174 1.1937 2.5762 2.9477 2.5762 5.262-3e-5 1.547-0.42634 2.8381-1.279 3.8734-0.84048 1.0354-2.089 1.8027-3.7455 2.3021 1.8514 0.51159 3.2461 1.346 4.184 2.5031 0.95006 1.145 1.4251 2.5944 1.4251 4.3484-2e-5 2.7041-0.90138 4.7504-2.7041 6.139-1.7906 1.3764-4.452 2.0646-7.9843 2.0646-3.5445 0-6.2242-0.6882-8.0391-2.0646-1.8027-1.3886-2.7041-3.4349-2.7041-6.139 0-1.754 0.46894-3.2034 1.4068-4.3484 0.95008-1.1571 2.3508-1.9915 4.2023-2.5031m1.6444-5.463c-1e-5 1.0841 0.29841 1.9184 0.89526 2.5031 0.60901 0.58468 1.4738 0.87701 2.5944 0.877 1.0962 1e-5 1.9428-0.29232 2.5396-0.877s0.89524-1.419 0.89526-2.5031-0.29844-1.9123-0.89526-2.4848c-0.59686-0.58464-1.4434-0.87697-2.5396-0.87699-1.1206 2e-5 -1.9854 0.29235-2.5944 0.87699-0.59685 0.58469-0.89527 1.413-0.89526 2.4848" fill="#f00"/>
 <path transform="matrix(-.90928 0 0 -1.0998 351.5 184.5)" d="m256.77 21.959c-1.3155 1e-5 -2.3265 0.35934-3.0329 1.078s-1.0597 1.7479-1.0597 3.0878 0.35323 2.3691 1.0597 3.0878c0.70646 0.70647 1.7174 1.0597 3.0329 1.0597 1.3033 0 2.3021-0.35323 2.9964-1.0597 0.69427-0.71864 1.0414-1.7479 1.0414-3.0878-1e-5 -1.352-0.34716-2.3813-1.0414-3.0878-0.6943-0.71864-1.6931-1.078-2.9964-1.078m-5.1341-2.3204c-1.6566-0.49939-2.905-1.2668-3.7455-2.3021s-1.2607-2.3264-1.2607-3.8734c0-2.3021 0.85872-4.0561 2.5762-5.262s4.2388-1.8088 7.5641-1.8088c3.3009 3e-5 5.8101 0.60296 7.5275 1.8088 1.7174 1.1937 2.5762 2.9477 2.5762 5.262-2e-5 1.5469-0.42633 2.8381-1.279 3.8734-0.84047 1.0354-2.089 1.8027-3.7455 2.3021 1.8514 0.51159 3.2461 1.346 4.184 2.5031 0.95006 1.145 1.4251 2.5944 1.4251 4.3484-3e-5 2.7041-0.90138 4.7504-2.7041 6.139-1.7906 1.3764-4.452 2.0646-7.9843 2.0646-3.5445 0-6.2242-0.6882-8.0391-2.0646-1.8027-1.3886-2.7041-3.4349-2.7041-6.139-1e-5 -1.754 0.46894-3.2035 1.4068-4.3484 0.95008-1.1571 2.3508-1.9915 4.2023-2.5031m1.6444-5.463c-1e-5 1.0841 0.29841 1.9184 0.89526 2.5031 0.60901 0.58468 1.4738 0.87701 2.5944 0.87699 1.0962 2e-5 1.9428-0.29231 2.5396-0.87699s0.89525-1.419 0.89527-2.5031-0.29844-1.9123-0.89527-2.4848c-0.59685-0.58464-1.4434-0.87697-2.5396-0.877-1.1206 2e-5 -1.9854 0.29236-2.5944 0.877-0.59685 0.58468-0.89527 1.413-0.89526 2.4848" fill="#f00"/>
 <path d="m20.41 48.665c-4.1258 8.2455-7.1342 12.498-13.34 17.04 5.8724 4.487 10.013 9.1245 13.46 16.62 3.0792-7.1212 6.8464-12.43 13.39-16.843-6.582-3.3489-10.393-8.6536-13.51-16.817z" fill="#f00" fill-rule="evenodd"/>
 <path d="m49.13 36.22c-2.4033 4.8454-4.1557 7.3444-7.7702 10.013 3.4206 2.6368 5.8324 5.3619 7.8405 9.7668 1.7936-4.1847 3.988-7.3044 7.7995-9.8977-3.834-1.968-6.0537-5.0852-7.8698-9.8823z" fill="#f00" fill-rule="evenodd"/>
 <path d="m90.13 36.22c-2.4033 4.8454-4.1557 7.3444-7.7702 10.013 3.4206 2.6368 5.8324 5.3619 7.8405 9.7668 1.7936-4.1847 3.988-7.3044 7.7995-9.8977-3.834-1.968-6.0536-5.0852-7.8698-9.8823z" fill="#f00" fill-rule="evenodd"/>
 <path d="m48.77 71.22c-2.4033 4.8454-4.1557 7.3444-7.7702 10.013 3.4206 2.6368 5.8324 5.3619 7.8405 9.7668 1.7936-4.1847 3.988-7.3044 7.7995-9.8977-3.834-1.968-6.0537-5.0852-7.8698-9.8823z" fill="#f00" fill-rule="evenodd"/>
 <path d="m88.13 70.22c-2.4033 4.8454-4.1557 7.3444-7.7702 10.013 3.4206 2.6368 5.8324 5.3619 7.8405 9.7668 1.7936-4.1847 3.988-7.3044 7.7995-9.8977-3.834-1.968-6.0537-5.0852-7.8698-9.8823z" fill="#f00" fill-rule="evenodd"/>
 <path d="m89.77 100c-2.4033 4.8454-4.1557 7.3444-7.7702 10.013 3.4206 2.6368 5.8324 5.3619 7.8405 9.7668 1.7936-4.1847 3.988-7.3044 7.7995-9.8977-3.834-1.968-6.0537-5.0852-7.8698-9.8823z" fill="#f00" fill-rule="evenodd"/>
 <path d="m48.13 100c-2.4033 4.8454-4.1557 7.3444-7.7702 10.013 3.4206 2.6368 5.8324 5.3619 7.8405 9.7668 1.7936-4.1847 3.988-7.3044 7.7995-9.8977-3.834-1.968-6.0536-5.0852-7.8698-9.8823z" fill="#f00" fill-rule="evenodd"/>
 <path d="m49.13 130c-2.4033 4.8454-4.1557 7.3444-7.7702 10.013 3.4206 2.6368 5.8324 5.3619 7.8405 9.7668 1.7936-4.1847 3.988-7.3044 7.7995-9.8977-3.834-1.968-6.0537-5.0852-7.8698-9.8823z" fill="#f00" fill-rule="evenodd"/>
 <path d="m90.13 130.22c-2.4033 4.8454-4.1557 7.3444-7.7702 10.013 3.4206 2.6368 5.8324 5.3619 7.8405 9.7668 1.7936-4.1847 3.988-7.3044 7.7995-9.8977-3.834-1.968-6.0536-5.0852-7.8698-9.8823z" fill="#f00" fill-rule="evenodd"/>
 <path d="m118.34 106.34c-4.1258 8.2455-7.1342 12.498-13.34 17.04 5.8724 4.487 10.013 9.1245 13.46 16.62 3.0792-7.1212 6.8464-12.43 13.39-16.843-6.582-3.3489-10.393-8.6536-13.51-16.817z" fill="#f00" fill-rule="evenodd"/>
</svg>
